<svg xmlns="http://www.w3.org/2000/svg" viewBox="0 0 64 64" width="64" height="64" fill="none" stroke="currentColor" stroke-width="1.4" stroke-linecap="round" stroke-linejoin="round" aria-label="CURRYS">
  <path d="M10 36 q22 16 44 0 L42 50 q-10 4 -20 0 Z"/>
  <ellipse cx="32" cy="36" rx="22" ry="4" stroke-width="1.2"/>
  <ellipse cx="32" cy="36" rx="18" ry="2.5" opacity="0.5" stroke-width="0.9" stroke-dasharray="1.5 1.5"/>
  <circle cx="22" cy="36" r="1.4" fill="currentColor"/>
  <circle cx="32" cy="35" r="1.6" fill="currentColor"/>
  <circle cx="40" cy="36.5" r="1.3" fill="currentColor"/>
  <path d="M28 33 q-1 -2 1 -3 q1 1 0 3" stroke-width="0.9"/>
  <path d="M36 33 q1 -2 -1 -3 q-1 1 0 3" stroke-width="0.9"/>
  <path d="M50 22 q2 1 3 4 q1 4 -2 6 q-2 -3 -3 -6 q1 -4 2 -4 Z" stroke-width="1.1"/>
  <path d="M50 22 L50 20" stroke-width="0.9"/>
  <path d="M20 30 q-1 -3 1 -6 q-2 -3 0 -6" stroke-width="1.1" opacity="0.75"/>
  <path d="M30 28 q1 -3 -1 -6 q2 -3 -1 -8" stroke-width="1.2" opacity="0.85"/>
  <path d="M40 30 q-1 -3 1 -6 q-2 -3 0 -8" stroke-width="1.1" opacity="0.75"/>
  <g transform="translate(8 22) scale(0.8)" opacity="0.7">
    <path d="M0 0 L0 4 M0 0 L3.8 1.2 M0 0 L2.4 -3.2 M0 0 L-2.4 -3.2 M0 0 L-3.8 1.2" stroke-width="1"/>
    <circle cx="0" cy="0" r="0.5" fill="currentColor"/>
  </g>
  <circle cx="56" cy="34" r="0.6" fill="currentColor" opacity="0.6"/>
  <circle cx="58" cy="36" r="0.4" fill="currentColor" opacity="0.5"/>
</svg>
