<svg xmlns="http://www.w3.org/2000/svg" viewBox="0 0 140 80" width="140" height="80" aria-label="BELGIQUE">
  <ellipse cx="70" cy="40" rx="66" ry="36" fill="none" stroke="currentColor" stroke-width="1.4"/>
  <ellipse cx="70" cy="40" rx="60" ry="30" fill="none" stroke="currentColor" stroke-width="0.7" stroke-dasharray="2 2.4" opacity="0.55"/>
  <rect x="30" y="23" width="80" height="16" fill="none" stroke="currentColor" stroke-width="0.9" stroke-dasharray="2.6 2" opacity="0.95"/>
  <text x="70" y="34.5" text-anchor="middle" font-family="'Special Elite','Courier New',monospace,serif" font-size="11" letter-spacing="0.4" fill="currentColor" font-weight="700">BELGIQUE</text>
  <g transform="translate(70 55) scale(0.78)">
    <path d="M-8 6 L-8 -4 Q-6 -8 0 -8 Q6 -8 8 -4 L8 6 Z" fill="none" stroke="currentColor" stroke-width="1"/>
    <line x1="-6" y1="-3" x2="-4" y2="-3" stroke="currentColor" stroke-width="0.8"/>
    <line x1="4" y1="-3" x2="6" y2="-3" stroke="currentColor" stroke-width="0.8"/>
    <path d="M-2 0 Q0 2 2 0" fill="none" stroke="currentColor" stroke-width="0.7"/>
    <path d="M-4 -8 L-2 -10 L0 -8 L2 -10 L4 -8" fill="none" stroke="currentColor" stroke-width="0.6"/>
    <line x1="0" y1="6" x2="0" y2="9" stroke="currentColor" stroke-width="0.6"/>
  </g>
  <circle cx="10" cy="40" r="1.2" fill="currentColor" opacity="0.6"/>
  <circle cx="130" cy="40" r="1.2" fill="currentColor" opacity="0.6"/>
</svg>
