<svg xmlns="http://www.w3.org/2000/svg" viewBox="0 0 140 80" width="140" height="80" aria-label="VERCORS">
  <ellipse cx="70" cy="40" rx="66" ry="36" fill="none" stroke="currentColor" stroke-width="1.4"/>
  <ellipse cx="70" cy="40" rx="60" ry="30" fill="none" stroke="currentColor" stroke-width="0.7" stroke-dasharray="2 2.4" opacity="0.55"/>
  <rect x="30" y="23" width="80" height="16" fill="none" stroke="currentColor" stroke-width="0.9" stroke-dasharray="2.6 2" opacity="0.95"/>
  <text x="70" y="34.5" text-anchor="middle" font-family="'Special Elite','Courier New',monospace,serif" font-size="12" letter-spacing="0.4" fill="currentColor" font-weight="700">VERCORS</text>
  <g transform="translate(70 55) scale(0.78)">
    <path d="M-12 6 L-4 -6 L-2 -2 L4 -10 L12 6 Z" fill="none" stroke="currentColor" stroke-width="1"/>
    <line x1="-12" y1="6" x2="12" y2="6" stroke="currentColor" stroke-width="0.8"/>
    <path d="M-8 6 L-7 4 L-9 4 L-7 2 L-9 2 L-7 0 L-8 -2 L-7 0 L-9 2 L-7 2 L-9 4 L-7 4 L-8 6 Z" fill="currentColor" opacity="0.75" stroke="none"/>
    <line x1="-8" y1="6" x2="-8" y2="-3" stroke="currentColor" stroke-width="0.4" opacity="0.5"/>
  </g>
  <circle cx="10" cy="40" r="1.2" fill="currentColor" opacity="0.6"/>
  <circle cx="130" cy="40" r="1.2" fill="currentColor" opacity="0.6"/>
</svg>
