<svg xmlns="http://www.w3.org/2000/svg" viewBox="0 0 140 80" width="140" height="80" aria-label="DAUPHINE">
  <ellipse cx="70" cy="40" rx="66" ry="36" fill="none" stroke="currentColor" stroke-width="1.4"/>
  <ellipse cx="70" cy="40" rx="60" ry="30" fill="none" stroke="currentColor" stroke-width="0.7" stroke-dasharray="2 2.4" opacity="0.55"/>
  <rect x="30" y="23" width="80" height="16" fill="none" stroke="currentColor" stroke-width="0.9" stroke-dasharray="2.6 2" opacity="0.95"/>
  <text x="70" y="34.5" text-anchor="middle" font-family="'Special Elite','Courier New',monospace,serif" font-size="11" letter-spacing="0.4" fill="currentColor" font-weight="700">DAUPHINÉ</text>
  <g transform="translate(70 55) scale(0.78)">
    <path d="M-12 4 Q-8 -8 4 -8 Q12 -6 12 0 Q12 4 8 6 Q4 4 0 4 Q-4 6 -8 6 Z" fill="none" stroke="currentColor" stroke-width="0.9"/>
    <path d="M12 0 L15 -4 L13 -1" fill="none" stroke="currentColor" stroke-width="0.7"/>
    <circle cx="-2" cy="-2" r="0.6" fill="currentColor"/>
    <line x1="-12" y1="8" x2="12" y2="8" stroke="currentColor" stroke-width="0.5" opacity="0.6" stroke-dasharray="1.5 1"/>
  </g>
  <circle cx="10" cy="40" r="1.2" fill="currentColor" opacity="0.6"/>
  <circle cx="130" cy="40" r="1.2" fill="currentColor" opacity="0.6"/>
</svg>
