<svg xmlns="http://www.w3.org/2000/svg" viewBox="0 0 140 80" width="140" height="80" aria-label="SRI LANKA">
  <ellipse cx="70" cy="40" rx="66" ry="36" fill="none" stroke="currentColor" stroke-width="1.4"/>
  <ellipse cx="70" cy="40" rx="60" ry="30" fill="none" stroke="currentColor" stroke-width="0.7" stroke-dasharray="2 2.4" opacity="0.55"/>
  <rect x="30" y="23" width="80" height="16" fill="none" stroke="currentColor" stroke-width="0.9" stroke-dasharray="2.6 2" opacity="0.95"/>
  <text x="70" y="34.5" text-anchor="middle" font-family="'Special Elite','Courier New',monospace,serif" font-size="11" letter-spacing="0.4" fill="currentColor" font-weight="700">SRI LANKA</text>
  <g transform="translate(70 55) scale(0.78)">
    <path d="M-8 8 Q-6 -8 0 -10 Q6 -8 8 8 Z" fill="none" stroke="currentColor" stroke-width="0.9"/>
    <path d="M-3 -6 L-2 -8 L0 -7 L2 -8 L3 -6" fill="none" stroke="currentColor" stroke-width="0.6"/>
    <circle cx="-1.5" cy="-5" r="0.5" fill="currentColor"/>
    <circle cx="1.5" cy="-5" r="0.5" fill="currentColor"/>
    <path d="M-2 -2 Q0 0 2 -2" fill="none" stroke="currentColor" stroke-width="0.6"/>
    <line x1="-8" y1="6" x2="8" y2="6" stroke="currentColor" stroke-width="0.5" opacity="0.6"/>
  </g>
  <circle cx="10" cy="40" r="1.2" fill="currentColor" opacity="0.6"/>
  <circle cx="130" cy="40" r="1.2" fill="currentColor" opacity="0.6"/>
</svg>
